<svg xmlns="http://www.w3.org/2000/svg" viewBox="0 0 69.05 87.49"><defs><style>.cls-1{fill:#fff;}</style></defs><g id="레이어_2" data-name="레이어 2"><g id="레이어_2-2" data-name="레이어 2"><g id="Beer_Mug_Full" data-name="Beer Mug Full"><path class="cls-1" d="M62.53,33.31H58.26V26.08a13,13,0,0,0,2.2-7.27,8.53,8.53,0,0,0,0-1A12.83,12.83,0,0,0,53.19,7.31,13,13,0,0,0,42.62,7,14.44,14.44,0,0,0,17.86,7a12.76,12.76,0,0,0-7.4-.75A12.6,12.6,0,0,0,1,14a13,13,0,0,0,1.32,12.2V76.48a11,11,0,0,0,11,11h34a11,11,0,0,0,11-11V72.11l4-1.58a10.73,10.73,0,0,0,6.78-10V39.78A6.52,6.52,0,0,0,62.53,33.31ZM53.85,76.48a6.61,6.61,0,0,1-6.6,6.6h-34a6.61,6.61,0,0,1-6.61-6.6V40.84a12.6,12.6,0,0,0,8.51,3.26c.57,0,1.1-.05,1.63-.09V71.94a2.2,2.2,0,0,0,4.4,0V43a.83.83,0,0,0,0-.31,12.93,12.93,0,0,0,6.91-10.83H47.55a12.64,12.64,0,0,0,6.3-1.68Zm0-51.85a8.6,8.6,0,0,1-6.26,2.77H27.25a3.53,3.53,0,0,0-3.48,2.69,4.31,4.31,0,0,0-.09.88,8.68,8.68,0,0,1-4.63,7.84A8.51,8.51,0,0,1,7.62,35a8.38,8.38,0,0,1-.9-3.78,7.94,7.94,0,0,1,.75-3.39,2.63,2.63,0,0,0-.58-3,8.55,8.55,0,0,1-1.8-9.3,8.25,8.25,0,0,1,6.17-5,11.63,11.63,0,0,1,1.67-.13,8.6,8.6,0,0,1,3.79.88,3.36,3.36,0,0,0,2.6.27,3.53,3.53,0,0,0,2-1.68,10,10,0,0,1,17.88,0,3.32,3.32,0,0,0,1.94,1.68,3.55,3.55,0,0,0,2.6-.22A8.45,8.45,0,0,1,55.12,15,8.77,8.77,0,0,1,56,18.15a8.36,8.36,0,0,1-2.22,6.48Zm10.84,35.9a6.29,6.29,0,0,1-4.06,5.9l-2.29,1V37.71h4.23a2.12,2.12,0,0,1,2.12,2.07Z"/><path class="cls-1" d="M41.48,74.14a2.2,2.2,0,0,1-2.2-2.2V43a2.2,2.2,0,0,1,4.4,0v29A2.2,2.2,0,0,1,41.48,74.14Z"/></g></g></g></svg>