<svg xmlns="http://www.w3.org/2000/svg" viewBox="0 0 73.4 73.4"><defs><style>.cls-1{fill:none;stroke:#fff;stroke-miterlimit:10;stroke-width:4.35px;}</style></defs><g id="레이어_2" data-name="레이어 2"><g id="레이어_2-2" data-name="레이어 2"><path class="cls-1" d="M66.61,19.44A34.33,34.33,0,0,1,71.23,36.7"/><path class="cls-1" d="M66.61,19.44A34.51,34.51,0,0,0,36.7,2.18"/><path class="cls-1" d="M71.23,36.7A34.37,34.37,0,0,1,66.61,54"/><path class="cls-1" d="M6.8,19.44A34.5,34.5,0,0,1,36.7,2.18"/><path class="cls-1" d="M36.7,71.23A34.52,34.52,0,0,1,6.8,54"/><path class="cls-1" d="M2.18,36.7A34.37,34.37,0,0,0,6.8,54"/><path class="cls-1" d="M36.7,71.23A34.53,34.53,0,0,0,66.61,54"/><path class="cls-1" d="M6.8,19.44A34.33,34.33,0,0,0,2.18,36.7"/><path class="cls-1" d="M36.7,71.23c-7,0-13.18-7-16.46-17.26"/><path class="cls-1" d="M36.7,71.23c7,0,13.18-7,16.47-17.26"/><path class="cls-1" d="M55.71,36.7A57.65,57.65,0,0,1,53.17,54"/><path class="cls-1" d="M17.69,36.7A57.33,57.33,0,0,0,20.24,54"/><path class="cls-1" d="M53.17,19.44A57.58,57.58,0,0,1,55.71,36.7"/><path class="cls-1" d="M17.69,36.7a57.26,57.26,0,0,1,2.55-17.26"/><path class="cls-1" d="M53.17,19.44C49.88,9.12,43.74,2.18,36.7,2.18"/><path class="cls-1" d="M36.7,2.18c-7,0-13.18,6.94-16.46,17.26"/><line class="cls-1" x1="36.7" y1="2.18" x2="36.7" y2="19.44"/><line class="cls-1" x1="36.7" y1="19.44" x2="36.7" y2="36.7"/><line class="cls-1" x1="36.7" y1="36.7" x2="36.7" y2="53.97"/><line class="cls-1" x1="36.7" y1="71.23" x2="36.7" y2="53.97"/><line class="cls-1" x1="17.69" y1="36.7" x2="36.7" y2="36.7"/><line class="cls-1" x1="17.69" y1="36.7" x2="2.18" y2="36.7"/><line class="cls-1" x1="71.23" y1="36.7" x2="55.71" y2="36.7"/><line class="cls-1" x1="55.71" y1="36.7" x2="36.7" y2="36.7"/><line class="cls-1" x1="20.24" y1="53.97" x2="36.7" y2="53.97"/><line class="cls-1" x1="36.7" y1="53.97" x2="53.17" y2="53.97"/><line class="cls-1" x1="20.24" y1="53.97" x2="6.8" y2="53.97"/><line class="cls-1" x1="66.61" y1="53.97" x2="53.17" y2="53.97"/><line class="cls-1" x1="66.61" y1="19.44" x2="53.17" y2="19.44"/><line class="cls-1" x1="20.24" y1="19.44" x2="36.7" y2="19.44"/><line class="cls-1" x1="6.8" y1="19.44" x2="20.24" y2="19.44"/><line class="cls-1" x1="53.17" y1="19.44" x2="36.7" y2="19.44"/></g></g></svg>