<svg xmlns="http://www.w3.org/2000/svg" viewBox="0 0 114.73 99.63"><defs><style>.cls-1{fill:none;stroke:#fff;stroke-linecap:round;stroke-linejoin:round;stroke-width:3.73px;}.cls-2{fill:#fff;}</style></defs><g id="레이어_2" data-name="레이어 2"><g id="레이어_2-2" data-name="레이어 2"><polyline class="cls-1" points="43.01 54.19 27.48 62.95 27.48 94.48 53.1 80.03 53.1 59.88"/><polygon class="cls-1" points="1.87 48.5 27.48 62.95 27.48 94.48 1.87 80.03 1.87 48.5"/><polyline class="cls-1" points="31.75 36.46 27.48 34.05 1.87 48.5 27.48 62.95 43.01 54.19"/><circle class="cls-2" cx="8.11" cy="59.99" r="0.99"/><circle class="cls-2" cx="14.67" cy="61.31" r="0.99"/><circle class="cls-2" cx="12.7" cy="65.91" r="0.99"/><circle class="cls-2" cx="8.11" cy="65.91" r="0.99"/><circle class="cls-2" cx="10.08" cy="72.47" r="0.99"/><circle class="cls-2" cx="6.79" cy="75.1" r="0.99"/><circle class="cls-2" cx="10.73" cy="78.39" r="0.99"/><circle class="cls-2" cx="15.33" cy="77.07" r="0.99"/><circle class="cls-2" cx="20.59" cy="75.76" r="0.99"/><circle class="cls-2" cx="17.96" cy="81.01" r="0.99"/><circle class="cls-2" cx="21.9" cy="84.3" r="0.99"/><circle class="cls-2" cx="21.9" cy="70.5" r="0.99"/><circle class="cls-2" cx="16.64" cy="69.85" r="0.99"/><circle class="cls-2" cx="19.27" cy="65.91" r="0.99"/><polygon class="cls-1" points="87.25 97.76 112.87 83.31 112.87 51.78 87.25 66.23 87.25 97.76"/><polyline class="cls-1" points="68.86 55.86 87.25 66.23 87.25 97.76 61.64 83.31 61.64 59.88"/><polyline class="cls-1" points="68.82 55.84 87.25 66.23 112.87 51.78 87.25 37.33 82.98 39.74"/><circle class="cls-2" cx="67.88" cy="63.28" r="0.99"/><circle class="cls-2" cx="74.44" cy="64.59" r="0.99"/><circle class="cls-2" cx="72.47" cy="69.19" r="0.99"/><circle class="cls-2" cx="67.88" cy="69.19" r="0.99"/><circle class="cls-2" cx="69.85" cy="75.76" r="0.99"/><circle class="cls-2" cx="66.56" cy="78.39" r="0.99"/><circle class="cls-2" cx="70.5" cy="81.67" r="0.99"/><circle class="cls-2" cx="75.1" cy="80.36" r="0.99"/><circle class="cls-2" cx="80.36" cy="79.04" r="0.99"/><circle class="cls-2" cx="77.73" cy="84.3" r="0.99"/><circle class="cls-2" cx="81.67" cy="87.58" r="0.99"/><circle class="cls-2" cx="81.67" cy="73.79" r="0.99"/><circle class="cls-2" cx="76.42" cy="73.13" r="0.99"/><circle class="cls-2" cx="79.04" cy="69.19" r="0.99"/><polygon class="cls-1" points="57.37 62.29 82.98 47.84 82.98 16.32 57.37 30.77 57.37 62.29"/><polygon class="cls-1" points="31.75 16.32 57.37 30.77 57.37 62.29 31.75 47.84 31.75 16.32"/><polygon class="cls-1" points="31.75 16.32 57.37 30.77 82.98 16.32 57.37 1.87 31.75 16.32"/><circle class="cls-2" cx="37.99" cy="27.81" r="0.99"/><circle class="cls-2" cx="44.56" cy="29.12" r="0.99"/><circle class="cls-2" cx="42.59" cy="33.72" r="0.99"/><circle class="cls-2" cx="37.99" cy="33.72" r="0.99"/><circle class="cls-2" cx="39.96" cy="40.29" r="0.99"/><circle class="cls-2" cx="36.68" cy="42.92" r="0.99"/><circle class="cls-2" cx="40.62" cy="46.2" r="0.99"/><circle class="cls-2" cx="45.22" cy="44.89" r="0.99"/><circle class="cls-2" cx="50.47" cy="43.57" r="0.99"/><circle class="cls-2" cx="47.84" cy="48.83" r="0.99"/><circle class="cls-2" cx="51.78" cy="52.11" r="0.99"/><circle class="cls-2" cx="51.78" cy="38.32" r="0.99"/><circle class="cls-2" cx="46.53" cy="37.66" r="0.99"/><circle class="cls-2" cx="49.16" cy="33.72" r="0.99"/></g></g></svg>